<?xml version="1.0" encoding="UTF-8"?>
<svg id="Layer_1" data-name="Layer 1" xmlns="http://www.w3.org/2000/svg" viewBox="0 0 223.5 42.49">
  <defs>
    <style>
      .cls-1 {
        fill: #f2f2f2;
      }

      .cls-2 {
        fill: #002a41;
      }
    </style>
  </defs>
  <rect class="cls-2" x="0" y="0" width="223.5" height="42.49" rx="21.24" ry="21.24"/>
  <g>
    <path class="cls-1" d="M41.6,15.68c0,1.84-1.04,3.13-3.13,3.89,.76,.23,1.38,.5,1.86,.78,1.46,.85,2.19,2.12,2.19,3.81s-.64,2.97-1.92,3.96c-1.28,.98-2.99,1.47-5.13,1.47-.77,0-1.75-.05-2.94-.14-1.19-.09-2.06-.14-2.62-.14-.49,0-.95,.03-1.38,.08l-1.27,.16s-.1,0-.19,.03h-.19c-.77-.02-1.16-.34-1.16-.97,0-.58,.28-.86,.84-.86,.14,0,.39,.03,.73,.08,.23,.04,.42,.05,.57,.05,.92,0,1.38-.67,1.38-2V15.04c0-1.35-.46-2.03-1.38-2.03-.16,0-.35,.02-.57,.05-.32,.05-.57,.08-.73,.08-.56,0-.84-.29-.84-.86,0-.63,.41-.94,1.24-.94h.35l1.32,.19c.38,.05,.89,.08,1.54,.08,.68,0,1.66-.05,2.92-.16,.85-.07,1.75-.11,2.73-.11,1.82,0,3.24,.38,4.25,1.15,1.02,.77,1.53,1.83,1.53,3.2Zm-10.34,1.16c0,.95,.08,1.54,.26,1.77,.17,.23,.64,.34,1.42,.34h1.51c3.19,0,4.78-1.03,4.78-3.1,0-1.89-1.31-2.84-3.94-2.84-1.84,0-2.97,.12-3.39,.35-.42,.23-.63,.84-.63,1.81v1.67Zm0,5.48v3c0,1.17,.2,1.89,.59,2.16s1.48,.41,3.24,.41c3.37,0,5.05-1.26,5.05-3.78,0-2.32-1.62-3.48-4.86-3.48h-2.24c-.97,0-1.53,.22-1.67,.65-.07,.22-.11,.57-.11,1.05Z"/>
    <path class="cls-1" d="M56.53,29.8c-1.48,0-2.39-.64-2.73-1.92-.92,1.35-2.36,2.02-4.32,2.02-1.46,0-2.62-.36-3.5-1.08-.87-.72-1.31-1.68-1.31-2.89,0-1.49,.64-2.59,1.92-3.29,.49-.27,.9-.45,1.26-.53s1.06-.18,2.12-.31c1.51-.16,2.5-.39,2.96-.67,.46-.29,.69-.82,.69-1.59s-.26-1.32-.77-1.74c-.51-.42-1.23-.63-2.15-.63-.81,0-1.57,.23-2.27,.67-.27,.18-.4,.37-.4,.57,0,.07,.08,.16,.24,.27,.25,.18,.38,.49,.38,.92,0,.36-.13,.66-.39,.89-.26,.23-.59,.35-.99,.35-.47,0-.86-.16-1.17-.49-.31-.32-.47-.72-.47-1.19,0-1.01,.5-1.87,1.5-2.59,1-.72,2.21-1.08,3.63-1.08,3.28,0,4.91,1.57,4.91,4.71v5.44c0,.86,.02,1.37,.05,1.54,.11,.63,.41,.94,.92,.94,.63,0,.94-.57,.94-1.72v-1.31c0-.57,.27-.86,.82-.86,.58,0,.88,.43,.88,1.3v1.67c-.04,1.73-.95,2.59-2.75,2.59Zm-3-5.37v-1.92c-.39,.36-.81,.61-1.25,.76-.44,.14-1.22,.27-2.35,.38-2.04,.2-3.07,.95-3.07,2.27,0,.68,.25,1.22,.74,1.62,.5,.4,1.17,.59,2.01,.59,1.21,0,2.16-.33,2.85-.99,.69-.66,1.05-1.56,1.07-2.71Z"/>
    <path class="cls-1" d="M68,20.54c0-.72,.45-1.13,1.35-1.24-.09-.63-.39-1.12-.9-1.48-.51-.36-1.17-.54-1.98-.54-1.24,0-2.24,.5-3,1.49-.76,.99-1.13,2.3-1.13,3.94s.35,3.02,1.07,3.98c.71,.96,1.7,1.44,2.96,1.44,.79,0,1.48-.22,2.07-.68,.58-.45,.99-1.07,1.2-1.86,.18-.63,.29-.99,.32-1.08,.2-.36,.49-.54,.86-.54,.31,0,.56,.1,.76,.3,.2,.2,.3,.45,.3,.76,0,.45-.14,.99-.43,1.62-.29,.63-.63,1.15-1.03,1.57-1.06,1.13-2.44,1.7-4.13,1.7-1.84,0-3.32-.65-4.44-1.94-1.13-1.3-1.69-3-1.69-5.1,0-2.23,.58-4.02,1.74-5.36,1.16-1.34,2.7-2.01,4.63-2.01,1.44,0,2.64,.39,3.59,1.17,.95,.78,1.43,1.78,1.43,2.98,0,.67-.18,1.22-.55,1.65-.37,.43-.84,.65-1.42,.65-.45,0-.82-.14-1.12-.4-.3-.27-.45-.6-.45-1Z"/>
    <path class="cls-1" d="M77.78,22.62l4.62-4.32c.16-.14,.24-.31,.24-.49s-.12-.27-.35-.27c-.18,0-.44,.04-.78,.11-.34,.07-.6,.11-.78,.11-.63,0-.94-.29-.94-.86,0-.63,.4-.95,1.19-.95,.2,0,.45,.02,.76,.05,1.24,.14,2.19,.22,2.83,.22,.36,0,.67-.02,.92-.05l1.11-.16c.25-.04,.46-.05,.62-.05,.88,0,1.32,.31,1.32,.93,0,.58-.31,.88-.92,.88-.14,0-.35-.02-.61-.07-.26-.04-.46-.07-.61-.07-.45,0-.92,.23-1.4,.68l-2.83,2.59c-.2,.18-.3,.32-.3,.43,0,.09,.07,.23,.22,.41l3.46,4.48c.88,1.13,1.51,1.7,1.89,1.7,.09,0,.24-.02,.45-.07,.21-.04,.37-.07,.5-.07,.65,0,.97,.29,.97,.86,0,.61-.41,.92-1.24,.92-.32,0-.81-.04-1.44-.11s-1.12-.11-1.44-.11c-.29,0-.71,.04-1.26,.11-.55,.07-.96,.11-1.23,.11-.68,0-1.03-.31-1.03-.92,0-.58,.32-.86,.97-.86,.18,0,.32,0,.43,.03,.32,.09,.53,.14,.62,.14,.16,0,.24-.06,.24-.19v-.08s-.03-.04-.03-.05l-.27-.38-.35-.51-2.7-3.59c-.18-.23-.32-.35-.43-.35-.07,0-.21,.09-.4,.27l-2,1.78v.62c0,.86,0,1.35,.03,1.46,.09,.63,.34,.95,.76,.95,.18,0,.33-.01,.46-.04,.13-.03,.3-.04,.51-.04,.61,0,.92,.3,.92,.89s-.34,.89-1.03,.89c-.31,0-.77-.04-1.39-.12-.62-.08-1.09-.12-1.42-.12-.41,0-.89,.04-1.43,.11-.68,.09-1.14,.14-1.38,.14-.7,0-1.05-.3-1.05-.89s.34-.89,1.03-.89c.14,0,.31,.02,.51,.05,.29,.05,.49,.08,.59,.08,.43,0,.67-.34,.73-1.03l.08-1.05V14.93c-.04-.97-.1-1.59-.19-1.85-.09-.26-.28-.39-.57-.39-.09,0-.26,.02-.52,.05-.25,.09-.51,.14-.76,.14-.6,0-.9-.28-.9-.84,0-.61,.35-.92,1.06-.92,.36,0,.62,0,.76,.03,.45,.05,.75,.08,.9,.08s.36-.02,.64-.05c.28-.04,.48-.05,.61-.05h.19c.58,0,.87,.37,.87,1.1v10.4Z"/>
    <path class="cls-1" d="M104.53,25.73v-1.73c.02-.74,.34-1.11,.97-1.11s.95,.41,.95,1.24c0,1.96-.25,3.33-.75,4.1-.68,1.04-1.8,1.57-3.35,1.57-1.43,0-2.45-.46-3.06-1.38-.45-.67-.67-1.8-.67-3.4v-6.48c0-.38-.18-.57-.52-.57h-.88c-.29,0-.54-.09-.73-.28s-.29-.42-.29-.69c0-.25,.09-.48,.28-.68,.19-.2,.4-.3,.63-.3h1.05c.31,0,.46-.17,.46-.51v-2.78c0-.68,.35-1.03,1.05-1.03,.65,0,.97,.34,.97,1.03v2.89c0,.27,.16,.41,.49,.41h2.94c.68,0,1.03,.32,1.03,.94,0,.67-.37,1-1.11,1h-2.97c-.25,0-.38,.19-.38,.57v6.64c0,1.89,.63,2.84,1.89,2.84s1.94-.76,2-2.3Z"/>
    <path class="cls-1" d="M114.04,29.91c-1.89,0-3.4-.65-4.54-1.96-1.13-1.3-1.7-3.06-1.7-5.25s.57-3.95,1.71-5.25c1.14-1.3,2.68-1.96,4.6-1.96s3.51,.64,4.64,1.92c1.13,1.28,1.7,3.02,1.7,5.21s-.58,3.96-1.75,5.29c-1.17,1.33-2.73,2-4.67,2Zm.13-12.64c-1.26,0-2.25,.44-2.97,1.32-.72,.88-1.12,2.13-1.19,3.75v.35c0,1.69,.35,3.02,1.07,3.98,.71,.96,1.71,1.44,2.98,1.44s2.34-.48,3.09-1.44c.75-.96,1.12-2.3,1.12-4.01,0-3.6-1.37-5.4-4.1-5.4Z"/>
    <path class="cls-1" d="M133.53,12.04l-.11,5.26c.72-.68,1.38-1.16,1.98-1.42,.6-.26,1.3-.39,2.11-.39,1.55,0,2.8,.44,3.74,1.32,.94,.88,1.41,2.04,1.41,3.48v4.51c0,1.06,0,1.65,.03,1.76,.07,.9,.31,1.35,.7,1.35,.14,0,.35-.05,.62-.15,.11-.03,.25-.04,.43-.04,.67,0,1,.31,1,.92s-.43,.92-1.3,.92c-.23,0-.58-.03-1.03-.08-.76-.09-1.37-.14-1.84-.14s-.83,.02-1.08,.05c-.76,.11-1.22,.16-1.4,.16-.32,0-.59-.09-.81-.28-.22-.19-.32-.43-.32-.72,0-.23,.09-.43,.28-.59,.19-.16,.41-.24,.66-.24,.2,0,.43,.05,.7,.14,.16,.05,.31,.08,.46,.08,.54,0,.82-.58,.84-1.76,0-.22,.02-.64,.05-1.27v-2.62c0-1.84-.18-3.07-.54-3.7-.52-.94-1.45-1.4-2.76-1.4-1.43,0-2.47,.49-3.12,1.46-.45,.67-.69,1.74-.7,3.21v1.94c0,.11-.04,.29-.11,.54v.51c0,1.03,0,1.62,.03,1.78,.09,.88,.36,1.32,.8,1.32,.15,0,.36-.04,.62-.12,.27-.08,.47-.12,.6-.12,.59,0,.89,.29,.89,.86,0,.65-.4,.97-1.2,.97-.25,0-.63-.03-1.14-.08-.69-.07-1.28-.11-1.77-.11-.31,0-.73,.03-1.28,.08-.73,.07-1.19,.11-1.39,.11-.74,0-1.11-.33-1.11-1,0-.56,.35-.83,1.04-.83,.24,0,.41,.03,.52,.08,.31,.08,.53,.11,.66,.11,.29,0,.49-.27,.59-.82,.1-.55,.16-1.67,.18-3.36v-4.83c0-2.7-.05-4.41-.16-5.12-.11-.71-.36-1.07-.76-1.07-.13,0-.31,.03-.57,.08-.25,.05-.45,.08-.59,.08-.61,0-.92-.29-.92-.86,0-.25,.11-.47,.32-.65,.22-.18,.48-.27,.78-.27,.09,0,.4,.03,.92,.08,.34,.04,.71,.05,1.11,.05,.16,0,.39-.02,.67-.07,.29-.04,.5-.07,.62-.07,.41,0,.62,.3,.62,.9v.05Z"/>
    <path class="cls-1" d="M152.73,29.91c-1.89,0-3.4-.65-4.54-1.96-1.13-1.3-1.7-3.06-1.7-5.25s.57-3.95,1.71-5.25c1.14-1.3,2.68-1.96,4.6-1.96s3.51,.64,4.64,1.92c1.13,1.28,1.7,3.02,1.7,5.21s-.58,3.96-1.75,5.29c-1.17,1.33-2.73,2-4.67,2Zm.13-12.64c-1.26,0-2.25,.44-2.97,1.32-.72,.88-1.12,2.13-1.19,3.75v.35c0,1.69,.35,3.02,1.07,3.98,.71,.96,1.71,1.44,2.98,1.44s2.34-.48,3.09-1.44c.75-.96,1.12-2.3,1.12-4.01,0-3.6-1.37-5.4-4.1-5.4Z"/>
    <path class="cls-1" d="M165.31,16.76v.78c.65-.77,1.26-1.31,1.84-1.61,.58-.3,1.3-.45,2.16-.45,1.76,0,3.06,.68,3.89,2.05,.61-.76,1.23-1.29,1.86-1.59,.63-.31,1.44-.46,2.43-.46s1.94,.22,2.75,.65c.9,.49,1.52,1.17,1.86,2.06,.23,.6,.35,1.53,.35,2.81v4.65c0,.74,0,1.19,.03,1.35,.09,.65,.32,.97,.7,.97,.12,0,.31-.03,.56-.09,.25-.06,.44-.09,.56-.09,.62,0,.94,.27,.94,.81,0,.63-.36,.94-1.08,.94-.27,0-.68-.03-1.23-.09-.55-.06-.97-.09-1.26-.09-.31,0-.75,.03-1.34,.09-.58,.06-1.03,.09-1.34,.09-.76,0-1.13-.31-1.13-.94,0-.54,.29-.81,.86-.81,.07,0,.25,.02,.54,.05,.11,.04,.25,.05,.43,.05,.31,0,.5-.15,.58-.46,.08-.31,.13-1.07,.15-2.29v-3.43c0-1.24-.09-2.15-.28-2.71-.19-.57-.54-1.01-1.06-1.34-.52-.32-1.11-.49-1.77-.49-1.27,0-2.16,.44-2.66,1.32-.39,.7-.59,1.93-.59,3.67v1.92c0,1.69,.04,2.75,.12,3.17,.08,.42,.29,.63,.63,.63,.11,0,.27-.02,.47-.05,.21-.04,.36-.05,.47-.05,.25,0,.46,.08,.63,.25,.17,.17,.26,.38,.26,.62,0,.59-.42,.88-1.27,.88-.27,0-.67-.04-1.2-.11-.53-.07-.93-.11-1.2-.11-.38,0-.79,.04-1.24,.11s-.85,.11-1.19,.11c-.74,0-1.11-.31-1.11-.92,0-.56,.27-.84,.81-.84,.2,0,.35,.03,.46,.08,.25,.08,.44,.11,.57,.11,.43,0,.66-.46,.68-1.38l.08-1.28v-3.93c0-1.57-.21-2.67-.63-3.28-.42-.61-1.17-.92-2.25-.92-1.19,0-2.1,.43-2.73,1.3-.52,.71-.78,1.94-.78,3.69v3.61c0,.72,0,1.15,.03,1.28,.07,.61,.27,.92,.59,.92,.09,0,.28-.05,.57-.15,.04,0,.09-.01,.16-.04h.19c.7,0,1.05,.3,1.05,.89s-.41,.86-1.21,.86c-.31,0-.68-.03-1.13-.08-.61-.07-1.13-.11-1.57-.11-.22,0-.61,.03-1.19,.08-.77,.07-1.24,.11-1.4,.11-.72,0-1.08-.31-1.08-.92,0-.56,.35-.84,1.04-.84h.17c.07,.02,.13,.03,.17,.03l.69,.14s.05,.03,.11,.03c.5,0,.76-.44,.8-1.32v-5.67c0-1.53-.04-2.48-.12-2.86-.08-.38-.3-.57-.66-.57-.07,0-.32,.04-.76,.13-.18,.04-.32,.05-.43,.05-.67,0-1-.29-1-.86,0-.61,.37-.92,1.11-.92,.2,0,.47,.02,.81,.05,.34,.04,.64,.05,.89,.05h.49l.65-.11h.08c.43,0,.65,.26,.65,.78Z"/>
    <path class="cls-1" d="M198.57,21.52c0,.68-.05,1.1-.14,1.26-.09,.15-.35,.23-.78,.23h-8.59c-.23,0-.39,.03-.46,.09-.07,.06-.11,.17-.11,.31,0,1.35,.4,2.48,1.21,3.38,.81,.9,1.82,1.35,3.02,1.35,.79,0,1.52-.22,2.17-.65,.66-.43,1.08-.98,1.28-1.65l.24-.78c.13-.43,.42-.65,.89-.65,.67,0,1,.34,1,1.03,0,1.17-.59,2.21-1.78,3.12s-2.54,1.36-4.05,1.36c-1.89,0-3.39-.63-4.51-1.9-1.12-1.27-1.67-2.97-1.67-5.12s.59-3.98,1.78-5.35c1.19-1.37,2.74-2.05,4.64-2.05,1.69,0,3.09,.57,4.19,1.7,1.1,1.13,1.65,2.57,1.65,4.32Zm-9.8-.7c0,.25,.2,.38,.59,.38h6.45c.38,0,.57-.13,.57-.38,0-.95-.36-1.78-1.08-2.48-.72-.7-1.57-1.05-2.54-1.05s-1.93,.36-2.75,1.09c-.83,.73-1.24,1.54-1.24,2.44Z"/>
  </g>
</svg>