<?xml version="1.0" encoding="UTF-8"?>
<svg id="Layer_1" data-name="Layer 1" xmlns="http://www.w3.org/2000/svg" viewBox="0 0 197.43 23.78">
  <defs>
    <style>
      .cls-1 {
        fill: #002a41;
      }
    </style>
  </defs>
  <path class="cls-1" d="M3.55,15.24V4.31c0-1.34-.46-2.02-1.38-2.02-.14,0-.33,.01-.57,.04-.34,.04-.59,.07-.73,.07-.58,0-.87-.3-.87-.9C0,.86,.4,.55,1.2,.55c.13,0,.26,0,.41,.03l1.34,.16c.44,.05,.98,.08,1.64,.08,.45,0,1-.03,1.64-.08,1.49-.13,2.62-.19,3.38-.19,1.16,0,2.16,.09,3,.27,1.2,.25,2.14,.82,2.82,1.69,.68,.87,1.02,1.93,1.02,3.17,0,1.71-.59,3.02-1.76,3.93-1.17,.91-2.87,1.36-5.09,1.36h-3.06c-.29,0-.48,.05-.56,.15s-.12,.33-.12,.69v.54c0,2.3,.07,3.7,.21,4.19,.14,.49,.53,.73,1.19,.73,.2,0,.39-.03,.57-.08,.4-.04,.65-.05,.74-.05,.56,0,.85,.29,.85,.87,0,.66-.4,.98-1.2,.98l-.38-.05-1.37-.19c-.38-.05-.96-.08-1.72-.08-.64,0-1.16,.03-1.56,.08l-1.58,.22s-.09,0-.16,.03h-.19c-.82,0-1.23-.32-1.23-.96,0-.25,.08-.47,.25-.64,.16-.17,.36-.26,.6-.26,.2,0,.45,.03,.74,.08,.13,.04,.32,.05,.57,.05,.93,0,1.39-.68,1.39-2.04ZM6.03,2.87c-.13,.18-.19,.68-.19,1.5v4.04c0,.49,.35,.77,1.04,.85-.05,0,.47,0,1.58,0,1.29,0,2.37-.1,3.22-.3,1.62-.38,2.43-1.45,2.43-3.19,0-2.31-1.47-3.47-4.42-3.47-2.18,0-3.4,.19-3.66,.57Z"/>
  <path class="cls-1" d="M29.35,19.22c-1.49,0-2.41-.65-2.76-1.94-.93,1.36-2.38,2.05-4.37,2.05-1.47,0-2.65-.36-3.54-1.09s-1.32-1.7-1.32-2.92c0-1.51,.65-2.62,1.94-3.33,.49-.27,.91-.45,1.27-.53,.35-.08,1.07-.19,2.14-.31,1.53-.16,2.53-.39,2.99-.68,.46-.29,.7-.83,.7-1.61s-.26-1.33-.78-1.76c-.52-.43-1.24-.64-2.17-.64-.82,0-1.58,.23-2.29,.68-.27,.18-.41,.37-.41,.57,0,.07,.08,.16,.25,.27,.25,.18,.38,.49,.38,.93,0,.36-.13,.66-.4,.9-.26,.24-.6,.35-1,.35-.47,0-.87-.16-1.19-.49-.32-.33-.48-.73-.48-1.2,0-1.02,.51-1.89,1.52-2.62,1.01-.73,2.23-1.09,3.67-1.09,3.31,0,4.97,1.59,4.97,4.77v5.5c0,.87,.02,1.39,.05,1.55,.11,.64,.42,.95,.93,.95,.64,0,.96-.58,.96-1.74v-1.33c0-.58,.28-.87,.83-.87,.59,0,.89,.44,.89,1.31v1.69c-.04,1.75-.96,2.62-2.78,2.62Zm-3.03-5.43v-1.94c-.4,.36-.82,.62-1.26,.76-.44,.15-1.24,.27-2.38,.38-2.07,.2-3.1,.96-3.1,2.29,0,.69,.25,1.24,.75,1.64,.5,.4,1.18,.6,2.03,.6,1.22,0,2.18-.33,2.88-1,.7-.66,1.06-1.58,1.08-2.74Z"/>
  <path class="cls-1" d="M39.48,4.75c.47,0,1.01,.07,1.61,.22,.09-1.78,1.13-2.68,3.11-2.68,.84,0,1.54,.22,2.1,.66,.56,.44,.85,.99,.85,1.67,0,.44-.14,.81-.42,1.12-.28,.31-.61,.46-1,.46-.29,0-.55-.1-.76-.3-.22-.2-.33-.44-.33-.71,0-.29,.2-.59,.6-.9-.29-.36-.66-.55-1.12-.55-.96,0-1.46,.6-1.47,1.8,1.38,.93,2.07,2.18,2.07,3.74,0,1.26-.47,2.3-1.42,3.14-.95,.84-2.14,1.26-3.56,1.26-1,0-2.04-.24-3.12-.71-.29-.13-.54-.19-.74-.19-.26,0-.48,.11-.68,.34-.2,.23-.3,.5-.3,.81,0,.95,.96,1.42,2.87,1.42h.99c1.73,0,3.14,.16,4.21,.49,1,.31,1.8,.79,2.38,1.44,.58,.65,.88,1.39,.88,2.2,0,1.32-.61,2.37-1.84,3.14-1.23,.77-2.89,1.16-4.98,1.16s-3.74-.36-4.93-1.09c-1.19-.73-1.79-1.73-1.79-3,0-1.47,.83-2.52,2.48-3.14-1.49-.58-2.24-1.46-2.24-2.62,0-1.27,.75-2.15,2.24-2.62-.47-.64-.71-1.38-.71-2.24,0-1.24,.48-2.27,1.43-3.08s2.15-1.23,3.59-1.23Zm.11,12.39c-1.46,0-2.6,.22-3.44,.66-.84,.44-1.26,1.03-1.26,1.77s.41,1.33,1.23,1.76c.82,.43,1.92,.64,3.3,.64,1.46,0,2.61-.22,3.45-.66,.85-.44,1.27-1.02,1.27-1.75,0-.76-.4-1.36-1.2-1.79-.8-.43-1.92-.64-3.36-.64Zm-.03-10.59c-.8,0-1.48,.24-2.05,.71-.56,.47-.87,1.06-.93,1.77v.16c0,.8,.27,1.45,.82,1.94,.55,.49,1.26,.74,2.13,.74s1.65-.25,2.23-.74c.57-.49,.86-1.12,.86-1.88s-.29-1.43-.87-1.94c-.58-.51-1.31-.76-2.18-.76Z"/>
  <path class="cls-1" d="M59.81,10.84c0,.69-.05,1.12-.14,1.27-.09,.15-.35,.23-.79,.23h-8.68c-.24,0-.39,.03-.46,.1-.07,.06-.11,.17-.11,.31,0,1.36,.41,2.5,1.23,3.41,.82,.91,1.84,1.36,3.06,1.36,.8,0,1.53-.22,2.2-.66,.66-.44,1.1-.99,1.3-1.67l.25-.79c.13-.44,.43-.66,.9-.66,.67,0,1.01,.35,1.01,1.04,0,1.18-.6,2.23-1.8,3.15-1.2,.92-2.57,1.38-4.1,1.38-1.91,0-3.43-.64-4.56-1.92-1.13-1.28-1.69-3.01-1.69-5.17s.6-4.02,1.8-5.41c1.2-1.38,2.77-2.07,4.7-2.07,1.71,0,3.12,.57,4.23,1.72,1.11,1.15,1.67,2.6,1.67,4.37Zm-9.91-.71c0,.26,.2,.38,.6,.38h6.52c.38,0,.57-.13,.57-.38,0-.96-.36-1.8-1.09-2.51-.73-.71-1.58-1.06-2.57-1.06s-1.95,.37-2.78,1.11c-.84,.74-1.26,1.56-1.26,2.47Z"/>
  <path class="cls-1" d="M72.84,6.05v.78c1.09-1.38,2.55-2.07,4.37-2.07,.98,0,1.91,.25,2.78,.75,.87,.5,1.46,1.12,1.77,1.87,.25,.62,.38,1.43,.38,2.43v5.19c0,.78,0,1.25,.03,1.39,.09,.62,.34,.93,.74,.93,.16,0,.38-.02,.64-.07,.26-.05,.45-.07,.56-.07,.24,0,.44,.08,.61,.25s.26,.36,.26,.6c0,.27-.11,.5-.33,.68-.22,.18-.48,.27-.79,.27-.25,0-.67-.04-1.26-.11s-1.13-.11-1.64-.11c-.47,0-.86,.02-1.17,.05-.91,.11-1.39,.16-1.45,.16-.73,0-1.09-.32-1.09-.96,0-.56,.31-.85,.95-.85,.15,0,.32,.02,.5,.05,.35,.07,.57,.11,.67,.11,.45,0,.69-.5,.72-1.5v-5.13c0-.96-.05-1.63-.14-1.99-.16-.69-.52-1.23-1.06-1.61-.6-.42-1.28-.63-2.04-.63-1.45,0-2.49,.52-3.13,1.56-.44,.71-.65,1.92-.65,3.63v3.63c0,.8,.05,1.35,.16,1.64,.11,.29,.31,.44,.6,.44,.15,0,.35-.03,.6-.1,.25-.06,.46-.1,.63-.1,.56,0,.85,.3,.85,.91s-.36,.89-1.09,.89c-.15,0-.62-.05-1.42-.16-.4-.05-.85-.08-1.34-.08-.38,0-.89,.04-1.53,.11-.8,.09-1.26,.14-1.36,.14-.76,0-1.15-.31-1.15-.93,0-.58,.3-.87,.89-.87,.09,0,.26,.03,.51,.08,.25,.05,.5,.08,.74,.08,.56,0,.84-.53,.86-1.58v-7.29c-.04-.62-.12-1.04-.24-1.27-.12-.23-.33-.34-.63-.34-.13,0-.32,.02-.57,.07-.25,.05-.44,.07-.57,.07-.67,0-1-.29-1-.87s.41-.9,1.23-.9c.11,0,.2,0,.27,.03l1.01,.11c.29,0,.55-.02,.76-.07,.47-.05,.72-.07,.74-.07,.53,0,.79,.28,.79,.83Z"/>
  <path class="cls-1" d="M92.33,19.33c-1.91,0-3.44-.66-4.59-1.98-1.15-1.32-1.72-3.09-1.72-5.31s.58-3.99,1.73-5.31c1.16-1.32,2.71-1.98,4.65-1.98s3.55,.65,4.7,1.94c1.15,1.29,1.72,3.05,1.72,5.27s-.59,4-1.77,5.35c-1.18,1.35-2.76,2.02-4.72,2.02Zm.14-12.78c-1.27,0-2.28,.45-3,1.34-.73,.89-1.13,2.16-1.2,3.79v.35c0,1.71,.36,3.05,1.08,4.03,.72,.97,1.72,1.46,3.02,1.46s2.37-.49,3.13-1.46c.75-.97,1.13-2.32,1.13-4.05,0-3.64-1.38-5.46-4.15-5.46Z"/>
  <path class="cls-1" d="M108.55,15.1v-1.75c.02-.75,.35-1.12,.98-1.12s.96,.42,.96,1.26c0,1.98-.25,3.37-.76,4.15-.69,1.06-1.82,1.58-3.39,1.58-1.45,0-2.48-.46-3.09-1.39-.45-.67-.68-1.82-.68-3.44V7.84c0-.38-.18-.57-.53-.57h-.89c-.3,0-.54-.1-.74-.29-.2-.19-.29-.42-.29-.7,0-.25,.1-.48,.29-.68,.19-.2,.4-.3,.64-.3h1.06c.31,0,.46-.17,.46-.52V1.97c0-.69,.35-1.04,1.06-1.04,.66,0,.98,.35,.98,1.04v2.92c0,.27,.16,.41,.49,.41h2.98c.69,0,1.04,.32,1.04,.96,0,.67-.37,1.01-1.12,1.01h-3c-.25,0-.38,.19-.38,.57v6.72c0,1.91,.64,2.87,1.91,2.87s1.97-.77,2.02-2.32Z"/>
  <path class="cls-1" d="M126.78,2.73c0-.25,.09-.48,.27-.68-.31-.29-.76-.44-1.36-.44-.78,0-1.4,.25-1.84,.75-.45,.5-.67,1.2-.67,2.09v.49c0,.24,.12,.35,.35,.35h2.13c.6,0,.9,.33,.9,.98s-.3,.98-.9,.98h-2.02c-.31,0-.46,.16-.46,.49v7.64c0,.67,0,1.06,.03,1.17,.09,.49,.32,.74,.68,.74,.09,0,.32-.05,.68-.14,.25-.04,.44-.05,.55-.05,.62,0,.93,.3,.93,.9,0,.64-.37,.96-1.12,.96-.31,0-.78-.04-1.41-.11s-1.1-.11-1.41-.11c-.55,0-1.04,.03-1.47,.08-.71,.09-1.17,.14-1.36,.14-.78,0-1.17-.32-1.17-.96,0-.24,.1-.45,.29-.63,.19-.18,.41-.27,.67-.27,.18,0,.39,.03,.61,.1,.23,.06,.43,.1,.61,.1,.35,0,.56-.22,.66-.66,.09-.44,.15-1.49,.16-3.17V7.75c0-.33-.16-.49-.49-.49h-1.35c-.63,0-.95-.34-.95-1.01,0-.64,.33-.96,.98-.96h1.56c.24,0,.35-.12,.35-.35v-.49c0-1.44,.38-2.54,1.15-3.3,.76-.76,1.85-1.15,3.25-1.15,1.15,0,2.07,.23,2.76,.7,.69,.46,1.04,1.09,1.04,1.87,0,.4-.13,.72-.38,.97-.26,.25-.57,.37-.96,.37s-.67-.11-.91-.34c-.25-.23-.37-.51-.37-.83Z"/>
  <path class="cls-1" d="M133.8,19.33c-1.91,0-3.44-.66-4.59-1.98-1.15-1.32-1.72-3.09-1.72-5.31s.58-3.99,1.73-5.31c1.16-1.32,2.71-1.98,4.65-1.98s3.55,.65,4.7,1.94c1.15,1.29,1.72,3.05,1.72,5.27s-.59,4-1.77,5.35c-1.18,1.35-2.76,2.02-4.72,2.02Zm.14-12.78c-1.27,0-2.28,.45-3,1.34-.73,.89-1.13,2.16-1.2,3.79v.35c0,1.71,.36,3.05,1.08,4.03,.72,.97,1.72,1.46,3.02,1.46s2.37-.49,3.13-1.46c.75-.97,1.13-2.32,1.13-4.05,0-3.64-1.38-5.46-4.15-5.46Z"/>
  <path class="cls-1" d="M153.59,18.18v-.85c-.96,1.33-2.39,1.99-4.29,1.99-2.15,0-3.64-.66-4.48-1.99-.36-.58-.56-1.26-.6-2.05-.02-.38-.03-1.18-.03-2.4v-2.27c0-2.49-.27-3.74-.8-3.74-.11,0-.29,.01-.52,.04s-.42,.04-.55,.04c-.64,0-.96-.3-.96-.89s.39-.86,1.17-.86c.18,0,.45,.02,.81,.07,.35,.05,.62,.07,.81,.07,.16,0,.45-.03,.85-.08,.27-.04,.43-.05,.46-.05,.56,0,.85,.35,.85,1.04v2.35l-.08,2.02v1.77c0,1.58,.13,2.72,.38,3.41,.42,1.15,1.42,1.72,3,1.72,.78,0,1.47-.18,2.07-.53s1.02-.82,1.26-1.41c.29-.71,.44-2.06,.44-4.04v-3.28c-.09-.87-.33-1.31-.71-1.31h-.82c-.64,0-.96-.27-.96-.82,0-.62,.35-.93,1.06-.93,.16,0,.41,.02,.75,.05,.34,.04,.59,.05,.75,.05,.15,0,.36-.02,.65-.05,.29-.04,.51-.05,.66-.05,.55,0,.82,.29,.82,.88,0,.26-.02,.46-.05,.6-.09,.69-.14,1.71-.14,3.06v4.21c0,1.11,0,1.73,.03,1.86,.09,.97,.35,1.45,.76,1.45,.13,0,.31-.02,.55-.07,.24-.05,.42-.07,.55-.07,.62,0,.93,.3,.93,.9s-.38,.93-1.15,.93c-.16,0-.4-.02-.71-.05-.46-.05-.74-.08-.85-.08-.05,0-.25,.02-.57,.05-.22,.05-.41,.08-.57,.08-.51,0-.76-.26-.76-.79Z"/>
  <path class="cls-1" d="M163.5,6.05v.78c1.09-1.38,2.55-2.07,4.37-2.07,.98,0,1.91,.25,2.78,.75,.87,.5,1.46,1.12,1.77,1.87,.25,.62,.38,1.43,.38,2.43v5.19c0,.78,0,1.25,.03,1.39,.09,.62,.34,.93,.74,.93,.16,0,.38-.02,.64-.07,.26-.05,.45-.07,.56-.07,.24,0,.44,.08,.61,.25s.26,.36,.26,.6c0,.27-.11,.5-.33,.68-.22,.18-.48,.27-.79,.27-.25,0-.67-.04-1.26-.11s-1.13-.11-1.64-.11c-.47,0-.86,.02-1.17,.05-.91,.11-1.39,.16-1.45,.16-.73,0-1.09-.32-1.09-.96,0-.56,.31-.85,.95-.85,.15,0,.32,.02,.5,.05,.35,.07,.57,.11,.67,.11,.45,0,.69-.5,.72-1.5v-5.13c0-.96-.05-1.63-.14-1.99-.16-.69-.52-1.23-1.06-1.61-.6-.42-1.28-.63-2.04-.63-1.45,0-2.49,.52-3.13,1.56-.44,.71-.65,1.92-.65,3.63v3.63c0,.8,.05,1.35,.16,1.64,.11,.29,.31,.44,.6,.44,.15,0,.35-.03,.6-.1,.25-.06,.46-.1,.63-.1,.56,0,.85,.3,.85,.91s-.36,.89-1.09,.89c-.15,0-.62-.05-1.42-.16-.4-.05-.85-.08-1.34-.08-.38,0-.89,.04-1.53,.11-.8,.09-1.26,.14-1.36,.14-.76,0-1.15-.31-1.15-.93,0-.58,.3-.87,.89-.87,.09,0,.26,.03,.51,.08,.25,.05,.5,.08,.74,.08,.56,0,.84-.53,.86-1.58v-7.29c-.04-.62-.12-1.04-.24-1.27-.12-.23-.33-.34-.63-.34-.13,0-.32,.02-.57,.07-.25,.05-.44,.07-.57,.07-.67,0-1-.29-1-.87s.41-.9,1.23-.9c.11,0,.2,0,.27,.03l1.01,.11c.29,0,.55-.02,.76-.07,.47-.05,.72-.07,.74-.07,.53,0,.79,.28,.79,.83Z"/>
  <path class="cls-1" d="M182.83,4.75c1.8,0,3.15,.7,4.04,2.1v-2.76c0-.73-.02-1.17-.05-1.34-.09-.56-.35-.85-.76-.85-.15,0-.35,.03-.61,.08-.26,.05-.47,.08-.61,.08-.67,0-1.01-.29-1.01-.87s.46-.9,1.37-.9c.15,0,.41,.02,.79,.05,.58,.05,.88,.08,.9,.08,.16,0,.4-.02,.71-.07s.55-.07,.71-.07c.51,0,.76,.36,.76,1.09v.3c-.02,.05-.04,.54-.05,1.45,0,.11-.03,.81-.08,2.11-.04,.91-.05,1.6-.05,2.08v7.25c.02,1.2,.07,1.95,.17,2.24,.09,.29,.31,.44,.67,.44,.24,0,.43-.02,.56-.05,.3-.04,.5-.05,.61-.05,.69,0,1.03,.3,1.03,.9s-.41,.93-1.23,.93c-.18,0-.46-.02-.83-.07-.37-.05-.65-.07-.83-.07-.05,0-.26,.02-.63,.05-.22,.05-.41,.08-.57,.08-.49,0-.74-.33-.74-.98v-.6c-.96,1.29-2.36,1.94-4.19,1.94s-3.34-.67-4.47-2.02c-1.12-1.35-1.69-3.11-1.69-5.3s.55-3.96,1.67-5.28c1.11-1.32,2.59-1.98,4.45-1.98Zm3.93,9.64c.07-.6,.11-1.37,.11-2.32,0-1.22-.05-2.05-.14-2.48-.17-.91-.56-1.62-1.18-2.13-.73-.6-1.58-.9-2.53-.9-1.28,0-2.29,.48-3.01,1.45-.72,.96-1.09,2.28-1.09,3.96s.38,3.09,1.13,4.08c.75,.99,1.78,1.49,3.08,1.49,.99,0,1.81-.29,2.47-.86,.66-.57,1.04-1.33,1.15-2.28Z"/>
  <path class="cls-1" d="M195.74,19.33c-.47,0-.87-.17-1.2-.51-.33-.34-.49-.74-.49-1.21s.16-.88,.49-1.21c.33-.34,.73-.51,1.2-.51s.87,.17,1.2,.51c.33,.34,.49,.74,.49,1.21s-.16,.88-.49,1.21c-.33,.34-.73,.51-1.2,.51Z"/>
</svg>