<?xml version="1.0" encoding="UTF-8"?>
<svg id="Layer_1" data-name="Layer 1" xmlns="http://www.w3.org/2000/svg" viewBox="0 0 200 37.83">
  <defs>
    <style>
      .cls-1 {
        fill: #002a41;
      }
    </style>
  </defs>
  <path class="cls-1" d="M15.26,37.67c-4.7,0-8.42-1.7-11.15-5.09C1.37,29.19,0,24.6,0,18.81S1.38,8.35,4.13,5.01C6.89,1.67,10.68,0,15.52,0s8.31,1.63,11.05,4.87c2.74,3.25,4.11,7.65,4.11,13.19,0,6.01-1.39,10.77-4.16,14.31-2.77,3.53-6.53,5.3-11.26,5.3Zm.11-33.86c-3.39,0-6.02,1.31-7.89,3.92-1.87,2.61-2.81,6.29-2.81,11.02s.94,8.52,2.81,11.15c1.87,2.63,4.49,3.95,7.84,3.95s5.89-1.37,7.82-4.11c1.93-2.74,2.89-6.45,2.89-11.15s-.92-8.38-2.76-10.94c-1.84-2.56-4.47-3.84-7.89-3.84Z"/>
  <path class="cls-1" d="M43.02,2.34l-.21,10.32c1.42-1.34,2.71-2.27,3.88-2.78,1.17-.51,2.55-.77,4.14-.77,3.05,0,5.49,.87,7.33,2.6,1.84,1.73,2.76,4.01,2.76,6.84v8.85c0,2.08,.02,3.23,.05,3.44,.14,1.77,.6,2.65,1.38,2.65,.28,0,.69-.1,1.22-.3,.21-.05,.49-.07,.85-.07,1.31,0,1.96,.6,1.96,1.8s-.85,1.8-2.54,1.8c-.46,0-1.13-.05-2.01-.16-1.48-.18-2.68-.27-3.6-.27s-1.63,.04-2.12,.11c-1.48,.21-2.4,.32-2.76,.32-.64,0-1.17-.19-1.59-.56-.42-.37-.64-.84-.64-1.4,0-.46,.19-.85,.56-1.17,.37-.32,.8-.48,1.3-.48,.39,0,.85,.09,1.38,.27,.32,.11,.62,.16,.9,.16,1.06,0,1.61-1.15,1.64-3.44,0-.42,.03-1.25,.11-2.49v-5.14c0-3.6-.36-6.02-1.06-7.26-1.03-1.84-2.84-2.75-5.43-2.75-2.8,0-4.84,.95-6.12,2.86-.89,1.31-1.35,3.41-1.38,6.31v3.81c0,.21-.07,.57-.21,1.06v1.01c0,2.01,.02,3.18,.05,3.5,.18,1.73,.71,2.6,1.58,2.6,.29,0,.7-.08,1.23-.24s.92-.24,1.17-.24c1.16,0,1.74,.56,1.74,1.69,0,1.27-.78,1.91-2.35,1.91-.5,0-1.25-.05-2.24-.16-1.35-.14-2.51-.21-3.47-.21-.6,0-1.44,.05-2.51,.16-1.42,.14-2.33,.21-2.72,.21-1.46,0-2.19-.66-2.19-1.97,0-1.09,.68-1.64,2.05-1.64,.47,0,.81,.05,1.02,.15,.61,.15,1.04,.22,1.29,.22,.58,0,.96-.54,1.16-1.62,.2-1.08,.31-3.28,.35-6.6V15.79c0-5.3-.11-8.64-.32-10.04-.21-1.39-.71-2.09-1.48-2.09-.25,0-.62,.05-1.11,.16-.5,.11-.88,.16-1.17,.16-1.2,0-1.8-.56-1.8-1.7,0-.49,.21-.92,.64-1.27,.42-.35,.94-.53,1.54-.53,.18,0,.78,.05,1.8,.16,.67,.07,1.4,.11,2.17,.11,.32,0,.76-.04,1.32-.13,.56-.09,.97-.13,1.22-.13,.81,0,1.22,.59,1.22,1.76v.11Z"/>
  <path class="cls-1" d="M92.9,9.11c2.36,0,4.33,.62,5.91,1.85v-.21c0-1.31,.56-1.96,1.7-1.96s1.75,.57,1.75,1.7c0,.21-.03,.74-.09,1.59-.12,.71-.18,1.41-.18,2.12,0,.42,.04,1.04,.13,1.85,.09,.81,.13,1.43,.13,1.85,0,1.34-.57,2.01-1.72,2.01s-1.69-.56-1.72-1.7v-1.75c-.04-1.06-.64-1.97-1.83-2.73-1.18-.76-2.57-1.14-4.16-1.14s-2.99,.42-4.08,1.24c-1.1,.83-1.64,1.86-1.64,3.1,0,2.26,1.55,3.6,4.66,4.03l3.07,.42c6,.81,9.01,3.3,9.01,7.47,0,2.54-.97,4.6-2.91,6.17-1.94,1.57-4.47,2.36-7.61,2.36-2.92,0-5.46-.83-7.61-2.49v1.01c0,1.27-.6,1.91-1.8,1.91-1.31,0-1.96-.72-1.96-2.17,0,.25,.11-.67,.32-2.76,.07-.49,.11-.99,.11-1.48,0-.85-.07-1.64-.21-2.38-.14-.74-.21-1.32-.21-1.75,0-1.24,.56-1.85,1.7-1.85,.74,0,1.21,.18,1.4,.53,.19,.35,.31,1.29,.34,2.81,.03,1.52,.83,2.76,2.38,3.71,1.55,.95,3.53,1.43,5.93,1.43,1.73,0,3.16-.44,4.29-1.32,1.13-.88,1.7-2,1.7-3.34,0-2.4-1.91-3.8-5.72-4.19-3.64-.39-6.41-1.1-8.32-2.15-1.91-1.04-2.86-2.87-2.86-5.48,0-2.47,.93-4.48,2.8-6.01,1.87-1.54,4.3-2.3,7.29-2.3Z"/>
  <path class="cls-1" d="M116.09,2.34l-.21,10.32c1.42-1.34,2.71-2.27,3.88-2.78,1.17-.51,2.55-.77,4.14-.77,3.05,0,5.49,.87,7.33,2.6,1.84,1.73,2.76,4.01,2.76,6.84v8.85c0,2.08,.02,3.23,.05,3.44,.14,1.77,.6,2.65,1.38,2.65,.28,0,.69-.1,1.22-.3,.21-.05,.49-.07,.85-.07,1.31,0,1.96,.6,1.96,1.8s-.85,1.8-2.54,1.8c-.46,0-1.13-.05-2.01-.16-1.48-.18-2.68-.27-3.6-.27s-1.63,.04-2.12,.11c-1.48,.21-2.4,.32-2.76,.32-.64,0-1.17-.19-1.59-.56-.42-.37-.64-.84-.64-1.4,0-.46,.19-.85,.56-1.17,.37-.32,.8-.48,1.3-.48,.39,0,.85,.09,1.38,.27,.32,.11,.62,.16,.9,.16,1.06,0,1.61-1.15,1.64-3.44,0-.42,.03-1.25,.11-2.49v-5.14c0-3.6-.36-6.02-1.06-7.26-1.03-1.84-2.84-2.75-5.43-2.75-2.8,0-4.84,.95-6.12,2.86-.89,1.31-1.35,3.41-1.38,6.31v3.81c0,.21-.07,.57-.21,1.06v1.01c0,2.01,.02,3.18,.05,3.5,.18,1.73,.71,2.6,1.58,2.6,.29,0,.7-.08,1.23-.24s.92-.24,1.17-.24c1.16,0,1.74,.56,1.74,1.69,0,1.27-.78,1.91-2.35,1.91-.5,0-1.25-.05-2.24-.16-1.35-.14-2.51-.21-3.47-.21-.6,0-1.44,.05-2.51,.16-1.42,.14-2.33,.21-2.72,.21-1.46,0-2.19-.66-2.19-1.97,0-1.09,.68-1.64,2.05-1.64,.47,0,.81,.05,1.02,.15,.61,.15,1.04,.22,1.29,.22,.58,0,.96-.54,1.16-1.62,.2-1.08,.31-3.28,.35-6.6V15.79c0-5.3-.11-8.64-.32-10.04-.21-1.39-.71-2.09-1.48-2.09-.25,0-.62,.05-1.11,.16-.5,.11-.88,.16-1.17,.16-1.2,0-1.8-.56-1.8-1.7,0-.49,.21-.92,.64-1.27,.42-.35,.94-.53,1.54-.53,.18,0,.78,.05,1.8,.16,.67,.07,1.4,.11,2.17,.11,.32,0,.76-.04,1.32-.13,.56-.09,.97-.13,1.22-.13,.81,0,1.22,.59,1.22,1.76v.11Z"/>
  <path class="cls-1" d="M149.14,3.18l-.9,4.87c0,.18,.09,.27,.27,.27,.11,0,.37-.19,.8-.58l3.07-2.86c.67-.64,1.38-.95,2.12-.95,1.17,0,1.75,.51,1.75,1.54s-.69,1.8-2.08,2.33l-4,1.48c-.6,.25-.91,.46-.91,.64,0,.14,.3,.34,.91,.58l4,1.48c1.39,.53,2.08,1.29,2.08,2.28,0,1.06-.58,1.59-1.75,1.59-.74,0-1.45-.32-2.12-.95l-3.07-2.86c-.42-.39-.69-.58-.8-.58-.18,0-.27,.09-.27,.26v.21l.11,.64,.79,4.03c.07,.35,.11,.65,.11,.9,0,1.48-.58,2.23-1.75,2.23s-1.75-.74-1.75-2.23c0-.28,.03-.58,.11-.9l.85-4.03c.07-.35,.11-.62,.11-.79,0-.21-.09-.32-.27-.32-.11,0-.37,.19-.79,.58l-3.07,2.86c-.67,.64-1.4,.95-2.17,.95-1.13,0-1.7-.51-1.7-1.54s.69-1.81,2.08-2.34l3.95-1.49c.6-.25,.91-.44,.91-.59,0-.21-.3-.43-.91-.64l-3.95-1.49c-1.39-.53-2.08-1.3-2.08-2.29s.58-1.54,1.75-1.54c.78,0,1.48,.3,2.12,.91l3.07,2.9c.42,.39,.69,.59,.79,.59,.18,0,.27-.11,.27-.32,0-.18-.04-.44-.11-.79l-.85-4.03c-.07-.32-.11-.62-.11-.9,0-1.52,.58-2.28,1.75-2.28s1.75,.76,1.75,2.28c0,.25-.04,.55-.11,.9Z"/>
  <path class="cls-1" d="M181.19,29.19v-3.39c.03-1.45,.67-2.17,1.91-2.17s1.85,.81,1.85,2.44c0,3.85-.49,6.54-1.47,8.05-1.33,2.05-3.53,3.07-6.58,3.07-2.81,0-4.81-.9-6-2.7-.88-1.31-1.32-3.53-1.32-6.68V15.1c0-.74-.34-1.11-1.03-1.11h-1.73c-.58,0-1.06-.19-1.44-.56-.38-.37-.57-.82-.57-1.35,0-.49,.19-.94,.56-1.32,.37-.39,.79-.58,1.24-.58h2.07c.6,0,.9-.34,.9-1.01V3.71c0-1.34,.69-2.01,2.07-2.01,1.27,0,1.91,.67,1.91,2.01v5.67c0,.53,.32,.79,.95,.79h5.78c1.34,0,2.01,.62,2.01,1.85,0,1.31-.72,1.96-2.17,1.96h-5.83c-.49,0-.74,.37-.74,1.11v13.03c0,3.71,1.24,5.56,3.71,5.56s3.81-1.5,3.92-4.5Z"/>
  <path class="cls-1" d="M196.66,37.41c-.92,0-1.7-.33-2.33-.98-.64-.65-.95-1.44-.95-2.36s.32-1.7,.95-2.36c.64-.65,1.41-.98,2.33-.98s1.7,.33,2.36,.98c.65,.65,.98,1.44,.98,2.36s-.33,1.7-.98,2.36c-.65,.65-1.44,.98-2.36,.98Zm-1.96-22.78v-5.83c0-1.45-.04-3.09-.11-4.93-.04-.28-.05-.62-.05-1.01,0-1.91,.74-2.86,2.23-2.86s2.28,1.02,2.28,3.07c0,.39-.02,.74-.05,1.06-.04,.18-.09,1.73-.16,4.66l-.26,5.72v9.96c0,1.24-.02,2-.05,2.28-.14,.99-.51,1.54-1.11,1.64-.21,.04-.48,.05-.79,.05-1.27,0-1.91-.88-1.91-2.65V14.62Z"/>
</svg>