<svg width="42" height="42" viewBox="0 0 42 42" fill="none" xmlns="http://www.w3.org/2000/svg">
<path d="M29.2595 18.8999C26.5501 18.8999 26.1751 21.5999 26.1751 21.5999H31.9313C31.9313 21.5999 31.9688 18.8999 29.2595 18.8999ZM16.2001 21.5999H11.1001V26.2874H15.947C16.6782 26.2687 18.047 26.0624 18.047 24.0093C18.047 21.5718 16.2001 21.5999 16.2001 21.5999Z" fill="black"/>
<path d="M21 0C9.40313 0 0 9.40313 0 21C0 32.5969 9.40313 42 21 42C32.5969 42 42 32.5969 42 21C42 9.40313 32.5969 0 21 0ZM25.425 12.9H32.6531V15.0563H25.425V12.9ZM21.7688 24.225C21.7688 29.5687 16.2 29.4 16.2 29.4H7.0875V11.8688H16.2C18.975 11.8688 21.1594 13.3969 21.1594 16.5375C21.1594 19.6781 18.4875 19.875 18.4875 19.875C22.0125 19.875 21.7688 24.225 21.7688 24.225ZM35.2875 23.9344H26.2031C26.2031 27.1875 29.2875 26.9812 29.2875 26.9812C32.2031 26.9812 32.1 25.0969 32.1 25.0969H35.1844C35.1844 30.1031 29.1844 29.7562 29.1844 29.7562C21.9937 29.7562 22.4531 23.0531 22.4531 23.0531C22.4531 23.0531 22.4437 16.3219 29.1844 16.3219C36.2812 16.3313 35.2875 23.9344 35.2875 23.9344Z" fill="black"/>
<path d="M17.4376 16.8095C17.4376 14.9907 16.2001 14.9907 16.2001 14.9907H11.1001V18.9001H15.8813C16.7063 18.9001 17.4376 18.6282 17.4376 16.8095Z" fill="black"/>
</svg>
