<svg width="36" height="36" viewBox="0 0 36 36" fill="none" xmlns="http://www.w3.org/2000/svg">
<path d="M18 0C8 0 0 8 0 18C0 28 8 36 18 36C28 36 36 28 36 18C36 8 28 0 18 0ZM18 14C20.2 14 22 15.8 22 18C22 20.2 20.2 22 18 22C15.8 22 14 20.2 14 18C14 15.8 15.8 14 18 14ZM23.6 10C23.6 8.6 24.8 7.6 26 7.6C27.2 7.6 28.4 8.8 28.4 10C28.4 11.2 27.4 12.4 26 12.4C24.6 12.4 23.6 11.4 23.6 10ZM18 32C10.2 32 4 25.8 4 18H10C10 22.4 13.6 26 18 26C22.4 26 26 22.4 26 18H32C32 25.8 25.8 32 18 32Z" fill="black"/>
</svg>
