<svg width="47" height="47" viewBox="0 0 47 47" fill="none" xmlns="http://www.w3.org/2000/svg">
<path d="M23.04 0C10.3152 0 0 10.3152 0 23.04C0 35.7648 10.3152 46.08 23.04 46.08C35.7648 46.08 46.08 35.7648 46.08 23.04C46.08 10.3152 35.7648 0 23.04 0ZM17.4 32.5896H12.7344V17.5752H17.4V32.5896ZM15.0384 15.732C13.5648 15.732 12.612 14.688 12.612 13.3968C12.612 12.0792 13.5936 11.0664 15.0984 11.0664C16.6032 11.0664 17.5248 12.0792 17.5536 13.3968C17.5536 14.688 16.6032 15.732 15.0384 15.732ZM34.44 32.5896H29.7744V24.2688C29.7744 22.332 29.0976 21.0168 27.4104 21.0168C26.1216 21.0168 25.356 21.9072 25.0176 22.764C24.8928 23.0688 24.8616 23.5008 24.8616 23.9304V32.5872H20.1936V22.3632C20.1936 20.4888 20.1336 18.9216 20.0712 17.5728H24.1248L24.3384 19.6584H24.432C25.0464 18.6792 26.5512 17.2344 29.0688 17.2344C32.1384 17.2344 34.44 19.2912 34.44 23.712V32.5896Z" fill="black"/>
</svg>
