<?xml version="1.0" encoding="UTF-8"?>
<svg id="Isolation_Mode" data-name="Isolation Mode" xmlns="http://www.w3.org/2000/svg" viewBox="0 0 373.48 373.48">
  <defs>
    <style>
      .cls-1 {
        fill: #002a41;
      }
    </style>
  </defs>
  <path class="cls-1" d="M324.06,68.68c-109.81,0-213.05,42.76-290.7,120.41-8.88,8.88-17.31,18.11-25.27,27.64-1.87,2.24-5.51,1.26-5.95-1.62C.73,205.86,0,196.39,0,186.75,0,83.62,83.6,0,186.75,0c54.56,0,103.65,23.4,137.79,60.71,.71,.78,1.42,1.56,2.12,2.35,1.94,2.19,.4,5.62-2.52,5.62-.02,0-.05,0-.07,0Z"/>
  <path class="cls-1" d="M373.47,188.42c-.88,100.95-83.13,183.64-184.08,185.04-57.53,.8-109.18-24.42-143.97-64.62-1.64-1.9-1.83-4.68-.48-6.79,58.83-92.08,161.95-153.25,279.1-153.25,14.24,0,28.26,.9,42.02,2.66,2.48,.32,4.48,2.23,4.89,4.69,1.74,10.49,2.6,21.28,2.5,32.27Z"/>
</svg>