<?xml version="1.0" encoding="UTF-8"?>
<svg id="Layer_1" data-name="Layer 1" xmlns="http://www.w3.org/2000/svg" viewBox="0 0 480 480">
  <defs>
    <style>
      .cls-1 {
        fill: #002a41;
      }

      .cls-2 {
        fill: #fff;
      }
    </style>
  </defs>
  <rect class="cls-2" x="0" y="0" width="480" height="480" rx="240" ry="240"/>
  <g>
    <path class="cls-1" d="M377.32,121.95c-109.81,0-213.05,42.76-290.7,120.41-8.88,8.88-17.31,18.11-25.27,27.64-1.87,2.24-5.51,1.26-5.95-1.62-1.41-9.25-2.14-18.71-2.14-28.36,0-103.13,83.6-186.75,186.75-186.75,54.56,0,103.65,23.4,137.79,60.71,.71,.78,1.42,1.56,2.12,2.35,1.94,2.19,.4,5.62-2.52,5.62-.02,0-.05,0-.07,0Z"/>
    <path class="cls-1" d="M426.73,241.68c-.88,100.95-83.13,183.64-184.08,185.04-57.53,.8-109.18-24.42-143.97-64.62-1.64-1.9-1.83-4.68-.48-6.79,58.83-92.08,161.95-153.25,279.1-153.25,14.24,0,28.26,.9,42.02,2.66,2.48,.32,4.48,2.23,4.89,4.69,1.74,10.49,2.6,21.28,2.5,32.27Z"/>
  </g>
</svg>