<svg width="147" height="43" viewBox="0 0 147 43" fill="none" xmlns="http://www.w3.org/2000/svg">
<path d="M30.2485 28.6902H26.246L21.6485 15.7L19.0668 22.8056H23.0403L24.1319 25.8983H18.0971L17.0528 28.6938H13.0502L19.4361 12.1888H23.859L30.2485 28.6902ZM101.613 28.6902V25.5976H94.6045V12.1906H91.0513V28.6956L101.613 28.6902ZM122.093 28.6902V25.5976H115.089V12.1906H111.53V28.6956L122.093 28.6902ZM71.3714 15.1438C70.3174 15.1438 69.2871 15.455 68.4108 16.0381C67.5345 16.6212 66.8514 17.45 66.4481 18.4196C66.0448 19.3893 65.9392 20.4563 66.1449 21.4856C66.3505 22.515 66.858 23.4606 67.6033 24.2027C68.3485 24.9449 69.298 25.4503 70.3317 25.655C71.3654 25.8598 72.4369 25.7547 73.4106 25.353C74.3844 24.9514 75.2166 24.2712 75.8022 23.3986C76.3877 22.5259 76.7002 21.4999 76.7002 20.4504C76.6988 19.0434 76.1369 17.6945 75.1378 16.6996C74.1388 15.7048 72.7842 15.1452 71.3714 15.1438ZM71.3714 11.9134C73.067 11.9131 74.7246 12.4135 76.1346 13.3513C77.5447 14.2891 78.6437 15.6223 79.2929 17.1822C79.942 18.7421 80.112 20.4586 79.7815 22.1147C79.4509 23.7709 78.6345 25.2922 77.4357 26.4863C76.2368 27.6804 74.7093 28.4936 73.0463 28.8232C71.3833 29.1527 69.6595 28.9838 68.0929 28.3377C66.5263 27.6916 65.1874 26.5974 64.2453 25.1934C63.3032 23.7895 62.8004 22.1389 62.8004 20.4504C62.8004 18.1862 63.7036 16.0148 65.3113 14.4138C66.919 12.8129 69.0995 11.9134 71.3732 11.9134H71.3714ZM138.427 15.1438C137.373 15.1438 136.343 15.455 135.467 16.0381C134.59 16.6212 133.907 17.45 133.504 18.4196C133.101 19.3893 132.995 20.4563 133.201 21.4856C133.406 22.515 133.914 23.4606 134.659 24.2027C135.404 24.9449 136.354 25.4503 137.388 25.655C138.421 25.8598 139.493 25.7547 140.466 25.353C141.44 24.9514 142.272 24.2712 142.858 23.3986C143.444 22.5259 143.756 21.4999 143.756 20.4504C143.755 19.0434 143.193 17.6945 142.194 16.6996C141.195 15.7048 139.84 15.1452 138.427 15.1438ZM138.427 11.9134C140.123 11.9134 141.78 12.4141 143.19 13.3522C144.6 14.2902 145.699 15.6235 146.347 17.1834C146.996 18.7434 147.166 20.4599 146.835 22.1159C146.504 23.7719 145.688 25.293 144.489 26.4869C143.29 27.6808 141.763 28.4939 140.1 28.8233C138.437 29.1527 136.713 28.9836 135.147 28.3375C133.58 27.6914 132.241 26.5971 131.299 25.1933C130.357 23.7894 129.854 22.1388 129.854 20.4504C129.854 18.1862 130.758 16.0148 132.365 14.4138C133.973 12.8129 136.154 11.9134 138.427 11.9134ZM53.6454 17.5987C53.6454 20.5319 51.2584 23.0104 48.3111 23.0104H44.1156V28.6902H40.5861V12.1852H48.3183C51.2602 12.1852 53.6472 14.6637 53.6472 17.5969L53.6454 17.5987ZM50.4015 17.5987C50.4015 16.4519 49.4645 15.4246 48.3111 15.4246H44.1156V19.78H48.3183C49.4664 19.78 50.4051 18.7455 50.4051 17.5969L50.4015 17.5987ZM37.5369 33.6997C37.391 33.6996 37.2472 33.7345 37.1177 33.8013C36.9882 33.8681 36.8768 33.965 36.7928 34.0838C36.7928 34.0838 35.9977 34.9896 35.5683 35.4154C32.866 38.1103 29.437 39.9672 25.6967 40.7613C21.9563 41.5553 18.065 41.2525 14.4939 39.8893C10.9228 38.5262 7.82524 36.1613 5.5762 33.081C3.32716 30.0007 2.02316 26.3372 1.82212 22.534C1.62107 18.7308 2.53161 14.9512 4.44345 11.6528C6.3553 8.35438 9.18644 5.67869 12.594 3.94973C16.0017 2.22078 19.8396 1.51273 23.643 1.91133C27.4464 2.30993 31.0522 3.79808 34.0237 6.19556C33.8577 6.67576 33.8621 7.19812 34.0362 7.67548C34.2103 8.15283 34.5435 8.55629 34.9802 8.81853C35.4169 9.08077 35.9308 9.18592 36.436 9.11644C36.9412 9.04696 37.4071 8.80704 37.7561 8.43673C38.1051 8.06643 38.3161 7.58813 38.3537 7.08166C38.3913 6.57519 38.2534 6.07119 37.9629 5.65377C37.6724 5.23636 37.2469 4.93077 36.7575 4.78802C36.2681 4.64526 35.7443 4.67397 35.2736 4.86936C31.976 2.17885 27.9525 0.520686 23.71 0.103889C19.4675 -0.312908 15.1961 0.530317 11.4342 2.52727C7.67226 4.52423 4.58818 7.58553 2.57072 11.3253C0.553266 15.065 -0.307265 19.3159 0.0976029 23.5419C0.502471 27.7679 2.15462 31.78 4.84578 35.0724C7.53694 38.3649 11.1467 40.7902 15.2199 42.0428C19.2932 43.2954 23.6476 43.3191 27.7344 42.111C31.8212 40.9029 35.4574 38.517 38.1846 35.2542C38.3135 35.1276 38.4015 34.9655 38.4374 34.7888C38.4733 34.6121 38.4555 34.4287 38.3861 34.2621C38.3167 34.0956 38.199 33.9534 38.0481 33.8539C37.8971 33.7543 37.7197 33.7019 37.5387 33.7033L37.5369 33.6997Z" fill="black"/>
</svg>
