<svg width="152" height="42" viewBox="0 0 152 42" fill="none" xmlns="http://www.w3.org/2000/svg">
<path d="M51.1973 18.4016V28.2742H46.8951V19.5814C46.8951 19.0331 46.7599 18.542 46.4897 18.1067C46.2357 17.6671 45.8698 17.3026 45.4294 17.0503C44.9853 16.7898 44.4784 16.6559 43.9637 16.6631C43.4506 16.6575 42.9451 16.788 42.4989 17.0414C42.0527 17.2948 41.6816 17.6619 41.4234 18.1054C41.1636 18.5407 41.0336 19.0331 41.0336 19.5814V28.2742H36.7314L36.7158 4.98956H41.0167L41.0336 13.8993C41.5534 13.403 42.1615 13.0157 42.8579 12.7351C43.5674 12.4555 44.3237 12.3135 45.0863 12.3167C46.2194 12.3167 47.2433 12.5896 48.158 13.1392C49.0819 13.6875 49.8212 14.4217 50.3709 15.3429C50.9218 16.2538 51.1973 17.2738 51.1973 18.4016ZM63.957 12.7507H68.5412L59.9979 36.0353H55.4462L58.2528 28.2742L52.6396 12.7507H57.3485L60.4033 22.4219L63.957 12.7507ZM81.388 12.7507H85.6902V28.4912C85.6902 29.6398 85.4563 30.6741 84.9886 31.5967C84.527 32.5209 83.8736 33.3359 83.072 33.9875C82.2716 34.6489 81.3464 35.1569 80.2966 35.5078C79.2571 35.8586 78.1565 36.0353 76.9923 36.0353C75.8904 36.0353 74.8353 35.8183 73.8283 35.383C72.8314 34.9663 71.9217 34.366 71.1464 33.6133C70.376 32.8704 69.7569 31.9853 69.3234 31.0068L73.2514 29.2214C73.4697 29.7386 73.7659 30.183 74.1402 30.5559C74.5248 30.9288 74.9614 31.2134 75.4486 31.4096C75.9476 31.6175 76.4621 31.7201 76.9923 31.7201C77.564 31.7201 78.1097 31.6526 78.6295 31.5187C79.1324 31.3959 79.6117 31.1913 80.0484 30.9132C80.4642 30.6443 80.7903 30.3077 81.0294 29.9036C81.2685 29.5008 81.388 29.0291 81.388 28.4912V26.6903C80.9076 27.2822 80.3145 27.7729 79.643 28.1339C78.9673 28.4977 78.1825 28.677 77.2885 28.677C76.2014 28.684 75.1244 28.4673 74.1246 28.0403C73.1589 27.624 72.2807 27.0288 71.5362 26.2862C70.7912 25.5353 70.194 24.6511 69.7756 23.6796C69.3458 22.6792 69.1282 21.6006 69.1363 20.5118C69.1363 19.3839 69.3494 18.3289 69.7756 17.3452C70.1916 16.3767 70.7892 15.4967 71.5362 14.753C72.2774 14.0023 73.1561 13.4015 74.1246 12.9833C75.1244 12.5564 76.2014 12.3396 77.2885 12.3466C78.1825 12.3466 78.9673 12.5337 79.643 12.9053C80.3158 13.2581 80.9096 13.7445 81.388 14.3346V12.7507ZM77.3509 24.5645C78.0294 24.5723 78.6956 24.3832 79.2688 24.0201C79.8405 23.6485 80.2862 23.156 80.6084 22.5466C80.9446 21.9216 81.1163 21.2214 81.1074 20.5118C81.1074 19.7673 80.941 19.089 80.6084 18.4796C80.3027 17.8764 79.8399 17.3669 79.2688 17.0048C78.6956 16.6417 78.0294 16.4526 77.3509 16.4604C76.6544 16.4604 76.0151 16.6423 75.433 17.0048C74.8613 17.366 74.4052 17.8585 74.0622 18.4796C73.7164 19.101 73.539 19.802 73.5477 20.5131C73.5477 21.2576 73.7192 21.9411 74.0622 22.5609C74.4052 23.1716 74.8626 23.6589 75.433 24.0201C76.0151 24.3839 76.6544 24.5645 77.3509 24.5645ZM89.0179 28.2742L89.0023 12.7507H93.3032L93.3201 13.8993C93.8398 13.403 94.448 13.0157 95.1444 12.7351C95.8539 12.4554 96.6102 12.3134 97.3728 12.3167C97.9445 12.3167 98.5163 12.3985 99.088 12.5636L97.3884 16.8957C97.0284 16.7427 96.6414 16.6631 96.2502 16.6618C95.7368 16.6565 95.2312 16.7874 94.785 17.0412C94.3387 17.2951 93.9677 17.6627 93.7099 18.1067C93.45 18.5407 93.3201 19.0331 93.3201 19.5814V28.2742H89.0179ZM111.063 12.7507H115.365V28.2742H111.047L110.845 26.6591C110.442 27.257 109.909 27.7559 109.285 28.1183C108.653 28.4912 107.908 28.677 107.057 28.677C105.938 28.6864 104.828 28.4648 103.798 28.026C101.792 27.1683 100.19 25.5736 99.3245 23.5705C98.8946 22.5378 98.6772 21.429 98.6852 20.3104C98.6771 19.2449 98.8839 18.1887 99.2933 17.2049C99.6926 16.2526 100.275 15.3881 101.008 14.6607C101.739 13.9311 102.601 13.3464 103.549 12.9378C104.535 12.5198 105.596 12.3084 106.667 12.3167C107.624 12.3167 108.481 12.5181 109.24 12.9222C110.008 13.325 110.678 13.8369 111.25 14.458L111.063 12.7507ZM106.948 24.5645C107.626 24.5721 108.292 24.383 108.864 24.0201C109.436 23.6589 109.888 23.1716 110.221 22.5609C110.556 21.9307 110.727 21.2267 110.72 20.5131C110.73 19.7988 110.558 19.0936 110.221 18.464C109.902 17.8685 109.435 17.3658 108.864 17.0048C108.292 16.6419 107.626 16.4528 106.948 16.4604C106.26 16.4524 105.583 16.6413 104.999 17.0048C104.416 17.3676 103.938 17.8759 103.611 18.4796C103.266 19.1011 103.089 19.8021 103.098 20.5131C103.098 21.2576 103.269 21.9411 103.611 22.5609C103.965 23.1716 104.432 23.6589 105.014 24.0201C105.594 24.382 106.265 24.5709 106.948 24.5645ZM122.944 36.0353H118.641V12.7507H122.944V14.4269C123.442 13.8162 124.036 13.3198 124.721 12.9378C125.407 12.5441 126.207 12.3479 127.122 12.3479C128.214 12.3398 129.296 12.5566 130.301 12.9846C131.282 13.3968 132.172 13.9977 132.921 14.753C133.668 15.4967 134.266 16.3766 134.682 17.3452C135.111 18.3456 135.329 19.4243 135.321 20.5131C135.321 21.6409 135.108 22.7012 134.682 23.6952C134.266 24.6733 133.669 25.5636 132.921 26.3187C132.169 27.0664 131.279 27.6619 130.301 28.0728C129.296 28.5008 128.214 28.7175 127.122 28.7095C126.207 28.7095 125.407 28.512 124.721 28.1183C124.044 27.7326 123.442 27.2282 122.944 26.6292V36.0353ZM127.059 16.4604C126.353 16.4604 125.713 16.6475 125.142 17.0191C124.578 17.3838 124.116 17.8859 123.801 18.4783C123.478 19.089 123.319 19.7673 123.319 20.5131C123.319 21.2576 123.478 21.9411 123.801 22.5609C124.133 23.1716 124.58 23.6589 125.142 24.0201C125.715 24.3832 126.381 24.5723 127.059 24.5645C127.766 24.5645 128.411 24.3826 128.992 24.0201C129.578 23.664 130.062 23.1611 130.395 22.5609C130.752 21.938 130.935 21.2308 130.925 20.5131C130.925 19.7776 130.754 19.1046 130.411 18.4939C130.081 17.8871 129.597 17.3782 129.007 17.0191C128.426 16.6467 127.75 16.4525 127.059 16.4604ZM151.476 18.4016V28.2742H147.174V19.5814C147.174 19.0331 147.038 18.542 146.768 18.1067C146.514 17.6671 146.148 17.3026 145.708 17.0503C145.264 16.7898 144.757 16.6559 144.242 16.6631C143.729 16.6576 143.224 16.7882 142.778 17.0416C142.331 17.2949 141.96 17.662 141.702 18.1054C141.442 18.5407 141.312 19.0331 141.312 19.5814V28.2742H137.009L136.993 4.98956H141.297L141.312 13.8993C141.832 13.403 142.439 13.0157 143.135 12.7351C143.845 12.4554 144.602 12.3134 145.365 12.3167C146.498 12.3167 147.521 12.5896 148.435 13.1392C149.36 13.6875 150.099 14.4217 150.649 15.3429C151.2 16.2538 151.476 17.2738 151.476 18.4016Z" fill="black"/>
<path fill-rule="evenodd" clip-rule="evenodd" d="M19.6789 5.5444L14.8388 8.31594L9.99864 11.0875L5.1585 13.8603V30.4922L9.99864 27.7194L14.8388 24.9478V19.4034L9.99864 22.1763V16.6319L14.8388 13.8603L19.6789 11.0875V27.7194L14.8388 30.4922L9.99864 33.2638L5.1585 36.0353L0.318359 38.8069L5.1585 41.5797L9.99864 38.8069L14.8388 36.0353L19.6789 33.2638L24.5204 30.4922V2.77155L19.6789 0V5.5444Z" fill="black"/>
</svg>
