<svg width="124" height="25" viewBox="0 0 124 25" fill="none" xmlns="http://www.w3.org/2000/svg">
<path d="M81.8838 0.010376H103.339V3.97043H94.8279V24.8037H90.5721V3.97043H81.8838V0.010376Z" fill="black"/>
<path d="M46.5976 0.010376V3.97043H29.3999V10.3409H43.2303V14.301H29.3999V20.8437H46.5976V24.8037H25.1444V3.97043H25.1426V0.010376H46.5976Z" fill="black"/>
<path d="M57.3104 0.0206909H51.7412L71.6888 24.8141H77.2743L67.2992 12.4259L77.2583 0.0396067L71.6888 0.0482134L64.5109 8.963L57.3104 0.0206909Z" fill="black"/>
<path d="M63.0256 17.7308L60.2366 14.2631L51.7256 24.833H57.3107L63.0256 17.7308Z" fill="black"/>
<path fill-rule="evenodd" clip-rule="evenodd" d="M25.2939 24.8037L5.31942 0H0V24.7934H4.25554V5.29957L19.9479 24.8037H25.2939Z" fill="black"/>
<path d="M104.296 24.6523C103.984 24.6523 103.719 24.5444 103.497 24.3284C103.275 24.1125 103.165 23.8511 103.168 23.5414C103.165 23.2402 103.275 22.9816 103.497 22.7657C103.719 22.5498 103.984 22.4418 104.296 22.4418C104.595 22.4418 104.858 22.5498 105.08 22.7657C105.305 22.9816 105.417 23.2402 105.42 23.5414C105.417 23.7459 105.365 23.9335 105.261 24.1011C105.155 24.2716 105.019 24.4051 104.849 24.5018C104.682 24.6012 104.497 24.6523 104.296 24.6523Z" fill="black"/>
<path d="M111.559 14.2075H113.445V21.4728C113.442 22.1405 113.297 22.7116 113.015 23.1918C112.73 23.672 112.334 24.0385 111.827 24.2971C111.322 24.5528 110.731 24.6835 110.059 24.6835C109.445 24.6835 108.895 24.5727 108.404 24.3568C107.914 24.1408 107.525 23.8169 107.239 23.3907C106.951 22.9645 106.81 22.4332 106.81 21.7967H108.698C108.701 22.0752 108.765 22.3167 108.886 22.5184C109.007 22.7201 109.174 22.8735 109.388 22.9815C109.604 23.0895 109.852 23.1435 110.131 23.1435C110.434 23.1435 110.694 23.081 110.904 22.9531C111.114 22.8281 111.276 22.6406 111.389 22.3905C111.498 22.1434 111.556 21.8365 111.559 21.4728V14.2075Z" fill="black"/>
<path d="M121.203 17.0489C121.157 16.6085 120.955 16.2647 120.604 16.0204C120.249 15.7732 119.79 15.651 119.228 15.651C118.833 15.651 118.493 15.7107 118.21 15.8272C117.928 15.9465 117.709 16.1056 117.559 16.3073C117.409 16.5091 117.334 16.7392 117.328 16.9978C117.328 17.2137 117.38 17.4012 117.481 17.5575C117.582 17.7166 117.717 17.8502 117.893 17.9582C118.066 18.069 118.259 18.1599 118.47 18.2337C118.683 18.3076 118.897 18.3701 119.11 18.4213L120.093 18.6628C120.488 18.7537 120.872 18.8759 121.238 19.0322C121.604 19.1856 121.936 19.3817 122.227 19.6175C122.518 19.8533 122.749 20.1374 122.919 20.4699C123.089 20.8023 123.176 21.1916 123.176 21.6405C123.176 22.2457 123.02 22.777 122.705 23.2373C122.391 23.6948 121.939 24.0528 121.345 24.3114C120.753 24.5671 120.038 24.6978 119.196 24.6978C118.383 24.6978 117.674 24.5728 117.077 24.3227C116.478 24.0755 116.01 23.7118 115.673 23.2345C115.336 22.7571 115.154 22.1747 115.128 21.4899H116.997C117.022 21.8479 117.138 22.1463 117.334 22.3878C117.533 22.6264 117.792 22.8026 118.109 22.9219C118.43 23.0384 118.787 23.0981 119.182 23.0981C119.594 23.0981 119.958 23.0356 120.272 22.9134C120.583 22.7912 120.828 22.6208 121.004 22.3992C121.183 22.1803 121.273 21.9218 121.275 21.6263C121.273 21.3564 121.192 21.1319 121.036 20.9557C120.878 20.7796 120.658 20.6318 120.379 20.5125C120.096 20.3932 119.767 20.2852 119.393 20.1914L118.199 19.8902C117.337 19.6715 116.653 19.339 116.154 18.893C115.653 18.4469 115.405 17.8559 115.405 17.1143C115.405 16.5062 115.572 15.9721 115.91 15.5146C116.244 15.0572 116.702 14.702 117.282 14.4491C117.864 14.1934 118.522 14.0684 119.254 14.0684C119.998 14.0684 120.65 14.1934 121.212 14.4491C121.774 14.702 122.216 15.0543 122.535 15.5032C122.856 15.9522 123.023 16.4664 123.032 17.0489H121.203Z" fill="black"/>
</svg>
